<?xml version="1.0" standalone="no"?>
<!DOCTYPE svg PUBLIC "-//W3C//DTD SVG 20010904//EN"
 "http://www.w3.org/TR/2001/REC-SVG-20010904/DTD/svg10.dtd">
<svg version="1.0" xmlns="http://www.w3.org/2000/svg"
 width="842.000000pt" height="842.000000pt" viewBox="0 0 842.000000 842.000000"
 preserveAspectRatio="xMidYMid meet">
<metadata>
Created by potrace 1.11, written by Peter Selinger 2001-2013
</metadata>
<g transform="translate(0.000000,842.000000) scale(0.100000,-0.100000)"
fill="#000000" stroke="none">
<path d="M2170 5690 c-4 -3 -18 -39 -31 -80 -19 -61 -23 -97 -23 -190 0 -103
8 -177 19 -188 2 -3 28 3 57 13 29 9 62 19 73 21 11 2 41 8 67 12 26 5 92 8
147 7 l101 -3 -7 27 c-3 14 -9 35 -13 46 -8 21 -5 102 4 145 10 43 55 125 87
158 17 17 27 32 23 33 -33 4 -497 3 -504 -1z"/>
<path d="M2854 5684 c-27 -7 -52 -13 -55 -14 -3 0 -27 -18 -53 -41 -82 -72
-115 -187 -82 -287 29 -86 110 -161 194 -179 39 -9 117 -7 138 2 11 5 21 9 24
10 24 6 73 40 98 70 46 52 64 91 69 155 17 184 -155 331 -333 284z"/>
<path d="M3580 5664 c-59 -21 -85 -38 -122 -79 -75 -83 -90 -242 -29 -318 67
-85 147 -126 321 -163 50 -11 108 -42 115 -62 8 -29 -19 -79 -54 -96 -36 -19
-185 -15 -287 8 -40 8 -78 17 -85 18 -11 2 -14 -19 -15 -99 l-2 -102 55 -16
c151 -44 313 -51 403 -16 129 49 214 171 211 303 -1 48 -27 128 -41 128 -5 0
-11 8 -14 18 -13 40 -178 115 -300 138 -105 19 -147 87 -81 130 31 20 121 20
208 0 36 -8 76 -17 89 -20 l25 -4 0 99 1 98 -62 20 c-130 42 -248 47 -336 15z"/>
<path d="M4924 5665 c-44 -18 -66 -49 -71 -99 -11 -95 82 -158 177 -120 19 8
43 26 53 39 38 52 25 134 -25 167 -34 22 -98 29 -134 13z"/>
<path d="M4368 5405 c-2 -2 -26 -6 -53 -9 -28 -3 -77 -13 -110 -23 l-60 -19
-1 -422 c-1 -377 1 -424 15 -431 19 -10 166 -9 176 1 4 4 8 60 9 125 l1 118
30 -5 c17 -2 64 -4 105 -3 60 0 86 5 130 27 127 61 199 168 201 296 0 63 -3
82 -25 134 -51 123 -175 200 -339 210 -41 2 -77 3 -79 1z m152 -224 c95 -49
102 -170 13 -228 -35 -23 -133 -27 -172 -7 l-29 15 1 115 c1 76 6 117 14 122
21 13 137 2 173 -17z"/>
<path d="M4995 5393 c-11 -2 -39 -9 -62 -15 l-43 -11 0 -312 c0 -270 2 -312
15 -313 8 0 44 -1 80 -2 113 -2 103 -37 103 336 l0 325 -36 -3 c-20 -1 -46 -4
-57 -5z"/>
<path d="M5360 5393 c-14 -2 -38 -8 -55 -13 -16 -5 -48 -14 -71 -19 l-40 -11
0 -300 -1 -300 31 -9 c32 -8 140 -6 157 4 5 4 9 103 9 235 0 154 4 231 11 236
10 6 120 9 144 4 26 -6 35 5 54 69 24 80 26 97 9 103 -16 6 -214 6 -248 1z"/>
<path d="M5847 5385 c-20 -7 -37 -10 -37 -6 0 3 -4 2 -8 -4 -4 -5 -23 -19 -42
-29 -89 -49 -162 -176 -162 -281 0 -71 41 -162 96 -217 97 -95 246 -131 429
-104 55 8 55 11 28 116 -12 47 -21 64 -31 61 -8 -2 -51 -5 -94 -6 -93 -3 -148
13 -195 55 -38 36 -59 32 203 34 227 1 215 -4 211 96 -8 159 -139 291 -295
296 -37 1 -83 -4 -103 -11z m168 -165 c29 -18 57 -53 61 -76 1 -8 -42 -12
-137 -12 -93 -1 -139 2 -139 9 0 23 42 68 80 87 47 23 89 20 135 -8z"/>
<path d="M2405 5203 c-97 -8 -235 -48 -235 -68 0 -31 72 -144 140 -219 34 -37
138 -121 152 -121 3 0 10 -4 14 -8 19 -19 148 -69 209 -81 17 -4 41 -9 55 -12
32 -6 169 -6 218 2 46 7 141 33 165 46 16 8 16 13 -10 61 -57 108 -145 206
-245 275 -45 31 -169 89 -209 98 -11 2 -29 6 -41 9 -51 12 -166 21 -213 18z"/>
<path d="M2313 4725 c-121 -36 -193 -127 -199 -248 -7 -154 110 -277 265 -280
150 -2 277 129 270 280 -8 168 -179 294 -336 248z"/>
<path d="M3107 4648 c-26 -10 -62 -20 -80 -23 -18 -2 -45 -7 -62 -11 -16 -4
-81 -7 -142 -6 -104 0 -112 -1 -103 -18 21 -39 27 -131 14 -195 -10 -47 -50
-119 -89 -160 -19 -21 -35 -38 -35 -39 0 -1 487 2 510 3 14 1 39 66 56 146 18
83 8 295 -15 316 -3 3 -28 -2 -54 -13z"/>
<path d="M3419 4442 c-3 -99 3 -228 10 -235 22 -22 28 10 27 129 -1 113 -3
127 -18 130 -13 2 -18 -5 -19 -24z"/>
<path d="M5049 4466 c-3 -3 -5 -242 -2 -252 5 -15 114 -10 141 7 12 7 23 18
24 24 7 48 3 67 -18 84 -18 14 -19 19 -8 27 7 5 16 23 19 41 7 43 -24 64 -100
68 -30 1 -56 2 -56 1z m116 -54 c9 -24 -18 -55 -51 -57 -27 -1 -29 1 -30 36
-1 27 4 39 15 41 28 6 59 -3 66 -20z m0 -94 c11 -13 12 -46 0 -61 -14 -19 -74
-30 -76 -15 -4 22 -5 74 -2 79 3 6 73 3 78 -3z"/>
<path d="M5603 4462 c-11 -7 -15 -64 -14 -194 1 -57 3 -66 19 -64 16 3 19 10
21 69 1 39 14 34 50 -24 17 -28 37 -49 44 -46 15 5 10 37 -10 60 -9 9 -13 17
-8 17 4 0 2 7 -5 15 -9 11 -9 21 1 45 8 16 17 30 21 30 5 0 8 7 8 16 0 25 -33
12 -55 -23 -11 -18 -26 -32 -32 -33 -14 0 -15 9 -15 75 0 46 -9 67 -25 57z"/>
<path d="M3756 4399 c-34 -10 -46 -24 -46 -60 0 -20 9 -29 46 -47 30 -15 44
-28 42 -39 -4 -20 -35 -26 -61 -11 -15 7 -22 7 -28 -3 -12 -20 2 -29 47 -33
63 -6 91 19 78 70 -4 17 -19 30 -45 41 -26 10 -39 21 -39 34 0 22 30 25 60 7
24 -15 37 -4 20 17 -21 26 -43 33 -74 24z"/>
<path d="M3519 4393 c-1 -5 -2 -47 -3 -95 -1 -68 2 -89 13 -93 22 -9 28 9 26
81 -2 66 1 72 34 79 29 5 39 -14 39 -75 0 -84 0 -88 19 -86 15 2 18 15 18 81
1 103 -14 125 -74 109 -23 -6 -41 -7 -41 -3 0 11 -30 12 -31 2z"/>
<path d="M3883 4387 c-3 -5 -6 -41 -7 -80 -1 -57 3 -76 16 -89 20 -20 58 -24
75 -7 8 8 17 8 32 0 12 -7 22 -10 22 -9 1 2 2 47 4 101 1 88 0 97 -17 97 -19
0 -22 -15 -19 -97 2 -48 -28 -80 -59 -63 -14 8 -17 22 -14 83 2 60 0 74 -12
74 -8 0 -17 -4 -21 -10z"/>
<path d="M4079 4390 c0 -3 -1 -43 -1 -89 1 -57 5 -86 13 -92 22 -13 27 -2 26
65 0 66 12 96 39 96 8 0 14 -5 14 -12 0 -8 6 -6 17 5 9 9 13 20 9 24 -8 9
-116 12 -117 3z"/>
<path d="M4227 4394 c-14 -15 6 -30 36 -26 24 2 35 -2 44 -16 11 -18 8 -20
-37 -26 -49 -7 -60 -19 -60 -71 0 -43 38 -63 85 -45 14 5 27 6 30 0 8 -13 45
-8 45 7 0 6 -4 15 -10 18 -5 3 -10 33 -10 66 0 73 -20 99 -78 99 -21 0 -41 -3
-45 -6z m83 -124 c0 -29 -28 -49 -50 -35 -16 10 -12 53 7 63 26 15 43 3 43
-28z"/>
<path d="M4407 4393 c-3 -7 -2 -144 2 -180 1 -14 22 -13 32 0 3 4 5 34 3 67
-1 47 2 63 18 77 15 13 23 15 36 6 13 -8 17 -25 17 -74 1 -69 8 -91 29 -83 17
6 14 158 -4 179 -14 17 -53 20 -80 5 -13 -7 -21 -7 -25 0 -7 12 -22 13 -28 3z"/>
<path d="M4625 4380 c-46 -51 -29 -154 28 -173 39 -13 77 -1 77 23 0 17 -3 18
-26 10 -31 -12 -48 -2 -61 38 -20 59 18 112 57 77 27 -25 46 -8 24 23 -20 29
-74 30 -99 2z"/>
<path d="M4802 4393 c-22 -8 -39 -56 -37 -102 2 -35 8 -50 29 -68 28 -24 45
-27 83 -17 40 11 35 32 -8 31 -42 -1 -56 7 -61 38 -3 18 3 20 46 20 53 0 62 9
52 50 -12 46 -57 67 -104 48z m62 -39 c11 -28 7 -34 -22 -34 -36 0 -44 8 -31
31 12 23 45 25 53 3z"/>
<path d="M5261 4385 c-11 -15 -5 -165 7 -177 20 -20 29 2 27 66 -1 74 8 92 50
91 20 0 30 5 30 15 0 11 -13 15 -53 15 -29 1 -56 -4 -61 -10z"/>
<path d="M5415 4374 c-29 -32 -34 -106 -10 -141 21 -29 69 -39 99 -19 43 28
54 111 22 162 -23 34 -78 33 -111 -2z m82 -27 c25 -55 -8 -128 -48 -106 -21
11 -26 76 -9 110 14 26 44 24 57 -4z"/>
<path d="M5781 4374 c-24 -31 -27 -80 -7 -128 16 -39 43 -51 92 -41 25 4 34
11 34 26 0 11 -5 17 -10 14 -30 -19 -60 -15 -76 10 -21 33 -13 40 44 40 43 0
47 2 47 25 0 14 -8 37 -18 53 -25 37 -77 38 -106 1z m80 -31 c8 -21 5 -23 -26
-23 -36 0 -46 15 -23 38 18 18 39 11 49 -15z"/>
<path d="M5947 4393 c-2 -5 -3 -48 -3 -97 1 -77 3 -89 19 -92 19 -3 18 -4 19
84 1 51 4 65 20 73 14 7 23 7 34 -1 11 -10 15 -9 20 3 3 9 3 21 -1 27 -8 14
-48 13 -63 -2 -9 -9 -12 -9 -12 0 0 13 -26 17 -33 5z"/>
<path d="M6101 4381 c-31 -31 -17 -69 35 -92 47 -20 53 -29 29 -49 -12 -10
-21 -10 -41 -1 -34 15 -43 14 -40 -6 3 -18 47 -34 80 -29 11 1 29 14 39 28 15
21 16 29 6 51 -7 16 -23 28 -40 32 -29 7 -54 36 -42 49 10 10 53 7 53 -4 0 -5
7 -10 15 -10 18 0 20 21 3 38 -18 18 -76 14 -97 -7z"/>
<path d="M3400 4029 c0 -5 3 -9 8 -10 4 0 626 -1 1382 -1 968 -1 1375 2 1378
10 2 7 -403 11 -1382 11 -849 0 -1386 -4 -1386 -10z"/>
<path d="M2182 3920 c-35 -15 -55 -73 -50 -152 5 -88 32 -120 104 -123 79 -4
90 6 91 79 l1 63 -49 0 c-42 0 -49 -2 -49 -19 0 -16 5 -19 25 -16 16 4 25 1
26 -8 5 -54 4 -59 -21 -65 -27 -6 -59 6 -76 29 -14 19 -17 112 -5 145 18 47
83 58 96 16 11 -33 48 -16 39 18 -10 37 -78 54 -132 33z"/>
<path d="M3997 3922 c-2 -4 -3 -24 -1 -45 2 -28 -1 -36 -9 -29 -34 27 -104
-14 -108 -63 -5 -60 -3 -72 9 -98 15 -32 55 -51 80 -38 10 5 29 7 44 4 l28 -5
-3 137 c-2 123 -4 138 -19 141 -10 1 -19 -1 -21 -4z m-4 -119 c4 -15 4 -64 -2
-110 -2 -20 -49 -15 -61 6 -5 11 -10 34 -10 51 0 17 5 40 10 51 13 24 57 25
63 2z"/>
<path d="M4324 3789 c1 -136 1 -139 22 -139 21 0 22 4 20 72 -2 75 9 98 44 98
28 0 36 -26 34 -103 -2 -64 -1 -68 19 -65 19 3 21 10 21 86 1 113 -15 130
-104 110 -11 -2 -15 6 -14 35 1 20 -1 37 -5 38 -3 0 -13 2 -21 4 -14 2 -16
-17 -16 -136z"/>
<path d="M2588 3902 c-10 -2 -18 -11 -18 -19 0 -9 -8 -22 -17 -29 -17 -13 -17
-15 -1 -27 13 -10 17 -28 16 -78 -1 -36 3 -73 8 -82 13 -23 48 -29 70 -13 21
16 11 36 -16 29 -19 -5 -20 0 -20 70 0 75 0 75 25 72 19 -2 25 2 23 14 -2 9
-12 16 -23 16 -13 0 -22 9 -25 25 -3 18 -10 24 -22 22z"/>
<path d="M4202 3891 c-8 -4 -13 -11 -13 -15 3 -20 0 -26 -9 -21 -5 3 -10 -3
-10 -14 0 -12 6 -20 12 -18 9 1 13 -18 13 -68 1 -78 10 -102 40 -105 38 -4 51
0 52 18 1 15 -4 18 -23 14 -26 -5 -27 -2 -26 83 1 63 1 64 22 60 11 -2 22 1
26 6 7 12 1 20 -18 23 -24 3 -37 16 -31 31 6 16 -14 20 -35 6z"/>
<path d="M2413 3850 c-30 -12 -46 -46 -46 -99 -1 -50 25 -100 52 -102 9 0 24
-2 35 -4 29 -6 66 12 60 29 -4 11 -15 13 -41 9 -28 -5 -39 -2 -49 12 -28 38
-18 50 38 50 l53 0 -1 38 c-1 21 -8 45 -16 53 -18 19 -57 25 -85 14z m58 -41
c16 -26 9 -36 -26 -37 -36 -1 -42 7 -25 38 11 21 37 21 51 -1z"/>
<path d="M2832 3849 c-48 -19 -64 -133 -24 -179 32 -39 122 -34 122 6 0 11 -6
14 -22 9 -25 -8 -26 -8 -46 -6 -18 1 -41 60 -35 90 9 49 44 67 68 34 13 -17
35 -10 35 11 0 31 -57 52 -98 35z"/>
<path d="M3013 3850 c-32 -13 -53 -60 -49 -114 4 -69 34 -93 108 -87 25 2 48
41 54 91 10 86 -43 138 -113 110z m65 -58 c12 -36 7 -93 -10 -103 -18 -12 -46
-11 -53 2 -4 5 -8 29 -10 52 -2 31 3 48 17 64 24 26 43 21 56 -15z"/>
<path d="M3385 3837 c-48 -42 -39 -160 13 -185 14 -7 51 -8 92 -3 6 0 10 9 10
19 0 15 -8 19 -42 18 -35 -1 -44 3 -55 24 -6 13 -10 26 -8 28 2 2 28 4 59 4
l55 1 -6 40 c-6 49 -20 64 -62 70 -23 4 -38 0 -56 -16z m75 -37 c12 -23 4 -30
-37 -30 -37 0 -40 6 -18 37 17 24 40 21 55 -7z"/>
<path d="M3555 3852 c-6 -4 -10 -51 -10 -105 0 -94 1 -97 23 -97 21 0 22 4 22
74 0 82 10 99 56 94 15 -2 29 2 31 9 7 19 -32 34 -59 24 -13 -5 -31 -5 -39 -1
-8 5 -19 6 -24 2z"/>
<path d="M3728 3842 c-30 -18 -40 -48 -37 -111 4 -66 62 -105 123 -81 44 16
33 38 -17 33 -39 -5 -44 -3 -55 22 -7 14 -10 30 -8 33 2 4 26 7 53 6 55 -2 64
7 52 49 -17 59 -63 79 -111 49z m72 -52 c0 -16 -7 -19 -35 -18 -38 1 -44 12
-19 39 20 22 54 9 54 -21z"/>
<path d="M4580 3847 c-13 -7 -31 -24 -38 -37 -17 -33 -10 -115 12 -139 33 -36
126 -36 126 0 0 17 -5 18 -39 13 -35 -6 -41 -3 -56 20 -10 15 -15 29 -12 32 3
3 29 7 59 7 46 2 53 5 52 22 -2 47 -16 74 -46 84 -17 6 -31 11 -32 11 -1 0
-12 -6 -26 -13z m60 -57 c0 -12 -9 -17 -35 -18 -40 -2 -44 9 -14 39 16 16 23
18 35 8 8 -6 14 -19 14 -29z"/>
<path d="M4843 3848 c-13 -6 -24 -17 -24 -25 -1 -7 -2 -19 -3 -25 -4 -25 13
-45 54 -63 58 -26 51 -51 -13 -48 -58 3 -66 -21 -12 -36 50 -14 87 -1 101 36
16 38 -2 68 -45 78 -16 3 -35 13 -42 22 -11 13 -10 18 6 29 16 12 22 12 42 -1
25 -17 43 -13 43 10 0 25 -71 40 -107 23z"/>
<path d="M5129 3853 c-14 -3 -16 -18 -16 -81 1 -75 0 -77 -26 -86 -40 -15 -51
3 -51 86 -1 66 -3 73 -22 76 -19 3 -20 -2 -19 -80 1 -94 11 -120 46 -119 13 1
44 2 69 2 l46 0 -1 99 c0 55 -3 101 -5 103 -3 2 -12 2 -21 0z"/>
<path d="M5216 3853 c-3 -3 -6 -51 -6 -105 0 -91 1 -98 20 -98 21 0 21 0 22
93 1 64 14 83 52 73 29 -7 43 9 26 29 -10 13 -54 14 -67 2 -3 -4 -13 -2 -23 3
-10 5 -20 6 -24 3z"/>
<path d="M5382 3835 c-23 -20 -27 -30 -27 -84 0 -49 4 -65 22 -82 35 -36 123
-31 123 6 0 12 -8 14 -38 9 -40 -6 -54 2 -66 41 -5 18 -2 20 49 18 37 -2 55 2
56 10 8 86 -60 133 -119 82z m78 -35 c12 -23 4 -30 -37 -30 -37 0 -40 6 -18
37 17 24 40 21 55 -7z"/>
<path d="M5920 3844 c-14 -16 -3 -38 13 -26 17 12 58 7 68 -9 16 -26 9 -35
-25 -33 -65 5 -104 -60 -66 -109 19 -24 46 -28 83 -12 10 4 23 2 32 -5 8 -7
22 -10 30 -6 18 6 20 33 3 38 -7 3 -11 26 -9 64 3 77 -16 104 -76 109 -27 2
-46 -2 -53 -11z m87 -126 c-3 -29 -7 -33 -33 -33 -20 0 -30 6 -32 18 -6 32 6
47 38 47 29 0 31 -2 27 -32z"/>
<path d="M6083 3853 c-8 -3 -9 -10 -3 -21 22 -39 63 -157 63 -180 0 -34 -40
-64 -66 -50 -14 7 -22 7 -28 -3 -11 -18 -3 -26 31 -34 60 -13 99 35 145 180
15 50 30 93 32 98 2 4 -7 7 -21 7 -18 0 -26 -6 -27 -17 0 -10 -9 -43 -19 -73
-18 -55 -18 -55 -29 -27 -6 16 -11 31 -11 35 0 3 -7 25 -16 47 -15 40 -24 47
-51 38z"/>
<path d="M3150 3846 c0 -2 7 -20 15 -40 8 -20 15 -39 16 -43 0 -5 7 -32 15
-60 14 -48 18 -53 44 -53 22 0 29 6 36 28 10 36 8 30 26 87 9 28 19 58 23 68
6 13 2 17 -17 17 -25 0 -24 2 -53 -112 -12 -52 -21 -44 -39 32 -17 72 -22 80
-43 80 -13 0 -23 -2 -23 -4z"/>
<path d="M5635 3828 c13 -111 33 -175 54 -181 21 -5 35 18 47 78 3 20 11 34
18 32 6 -2 11 -8 12 -13 1 -5 4 -28 9 -51 7 -38 11 -43 34 -43 27 0 31 12 65
190 1 3 -9 6 -21 8 -16 2 -22 -2 -21 -15 0 -10 -3 -29 -6 -43 -3 -14 -8 -38
-12 -53 -7 -33 -13 -31 -19 7 -11 60 -14 72 -20 89 -12 30 -34 18 -45 -25 -13
-50 -29 -92 -34 -87 -2 2 -6 20 -9 39 -4 19 -8 44 -11 55 -2 11 -5 23 -5 28
-1 4 -10 7 -20 7 -14 0 -18 -6 -16 -22z"/>
<path d="M6277 3693 c-12 -11 -8 -41 6 -46 23 -9 40 8 32 32 -6 21 -25 28 -38
14z"/>
</g>
</svg>
